<svg width="90" height="90" viewBox="0 0 90 90" fill="none" xmlns="http://www.w3.org/2000/svg">
<rect width="90" height="90" rx="20" fill="black"/>
<path d="M51.3892 37.1326C50.7655 37.1326 50.3497 36.353 50.2197 35.9632C50.6095 35.7033 51.7011 34.7157 52.9485 32.8447C54.1959 30.9736 53.4682 29.2063 52.9485 28.5566L50.6095 25.438C50.2977 24.5024 51.2593 24.2686 51.779 24.2686L54.5078 26.6075C56.0671 27.777 57.2365 27.777 58.406 26.9973C59.5755 26.0877 61.9924 24.2686 62.3042 24.2686C62.6161 24.2686 62.9539 24.7883 63.0839 25.0482L61.1348 27.3871C59.5755 29.3362 59.8354 31.5452 60.7449 32.4548L69.7109 42.98C81.5615 56.0781 84.784 65.8496 84.9139 69.0982V70.2676C81.4835 61.5356 72.3097 49.737 68.1516 44.9292C65.9426 42.3303 60.9788 36.7428 58.7958 35.1835C56.6128 33.6242 54.7677 34.2739 54.118 34.7937L51.3892 37.1326Z" fill="url(#paint0_linear_22668_2745)"/>
<path d="M38.5249 52.7258C39.1486 52.7258 39.5644 53.5054 39.6943 53.8952C39.3045 54.1551 38.213 55.1427 36.9656 57.0137C35.7181 58.8848 36.4458 60.6521 36.9656 61.3018L39.3045 64.4204C39.6164 65.356 38.6548 65.5898 38.135 65.5898L35.4063 63.2509C33.847 62.0814 32.6775 62.0814 31.5081 62.8611C30.3386 63.7707 27.9217 65.5898 27.6098 65.5898C27.298 65.5898 26.9601 65.0701 26.8302 64.8102L28.7793 62.4713C30.3386 60.5221 30.0787 58.3132 29.1691 57.4036L20.2032 46.8784C8.3526 33.7803 5.13006 24.0088 5.00012 20.7602V19.5908C8.43056 28.3228 17.6044 40.1214 21.7625 44.9292C23.9715 47.5281 28.9352 53.1156 31.1182 54.6749C33.3012 56.2342 35.1464 55.5845 35.7961 55.0647L38.5249 52.7258Z" fill="url(#paint1_linear_22668_2745)"/>
<path d="M52.187 51.4732C52.1721 50.8496 52.9416 50.4153 53.3282 50.2761C53.5974 50.6596 54.6107 51.7273 56.511 52.9297C58.4113 54.1321 60.1607 53.3625 60.7978 52.8274L63.8597 50.4147C64.7876 50.0806 65.0443 51.0363 65.0567 51.5559L62.7836 54.3397C61.6517 55.9265 61.6796 57.0956 62.4869 58.2461C63.4241 59.3936 65.3004 61.7664 65.3079 62.0781C65.3153 62.3899 64.8038 62.7401 64.5471 62.8762L62.1623 60.9834C60.1765 59.4711 57.9744 59.7836 57.0867 60.7146L46.7785 69.9291C33.9669 82.0889 24.275 85.5437 21.0306 85.7511L19.8614 85.779C28.5091 82.1412 40.0855 72.6884 44.7927 68.4168C47.3381 66.1464 52.8056 61.0508 54.3123 58.8312C55.8191 56.6116 55.1255 54.7824 54.5904 54.1453L52.187 51.4732Z" fill="url(#paint2_linear_22668_2745)"/>
<path d="M37.3721 38.3032C37.3869 38.9267 36.6174 39.361 36.2308 39.5002C35.9617 39.1167 34.9484 38.0491 33.0481 36.8467C31.1478 35.6442 29.3984 36.4139 28.7613 36.949L25.6994 39.3617C24.7715 39.6958 24.5147 38.7401 24.5023 38.2205L26.7755 35.4367C27.9074 33.8499 27.8795 32.6808 27.0722 31.5302C26.135 30.3828 24.2586 28.01 24.2512 27.6982C24.2438 27.3865 24.7553 27.0363 25.012 26.9002L27.3968 28.793C29.3826 30.3053 31.5847 29.9928 32.4723 29.0617L42.7806 19.8472C55.5922 7.68746 65.284 4.23268 68.5285 4.02526L69.6977 3.99735C61.05 7.63517 49.4736 17.0879 44.7664 21.3596C42.221 23.6299 36.7535 28.7256 35.2468 30.9452C33.74 33.1648 34.4336 34.9939 34.9687 35.631L37.3721 38.3032Z" fill="url(#paint3_linear_22668_2745)"/>
<defs>
<linearGradient id="paint0_linear_22668_2745" x1="50.2197" y1="24.6907" x2="85.6936" y2="69.8455" gradientUnits="userSpaceOnUse">
<stop offset="0.302885" stop-color="white"/>
<stop offset="1" stop-color="#737373" stop-opacity="0"/>
</linearGradient>
<linearGradient id="paint1_linear_22668_2745" x1="39.6943" y1="65.1677" x2="4.22048" y2="20.0129" gradientUnits="userSpaceOnUse">
<stop offset="0.302885" stop-color="white"/>
<stop offset="1" stop-color="#737373" stop-opacity="0"/>
</linearGradient>
<linearGradient id="paint2_linear_22668_2745" x1="64.5975" y1="50.0071" x2="20.302" y2="86.5484" gradientUnits="userSpaceOnUse">
<stop offset="0.302885" stop-color="white"/>
<stop offset="1" stop-color="#737373" stop-opacity="0"/>
</linearGradient>
<linearGradient id="paint3_linear_22668_2745" x1="24.9616" y1="39.7692" x2="69.257" y2="3.228" gradientUnits="userSpaceOnUse">
<stop offset="0.302885" stop-color="white"/>
<stop offset="1" stop-color="#737373" stop-opacity="0"/>
</linearGradient>
</defs>
</svg>
