<svg width="90" height="90" viewBox="0 0 90 90" fill="none" xmlns="http://www.w3.org/2000/svg">
<rect width="90" height="90" rx="20" fill="white"/>
<path d="M51.3887 37.1326C50.765 37.1326 50.3492 36.353 50.2192 35.9632C50.6091 35.7033 51.7006 34.7157 52.948 32.8447C54.1954 30.9736 53.4678 29.2063 52.948 28.5566L50.6091 25.438C50.2972 24.5024 51.2588 24.2686 51.7785 24.2686L54.5073 26.6075C56.0666 27.777 57.236 27.777 58.4055 26.9973C59.575 26.0877 61.9919 24.2686 62.3037 24.2686C62.6156 24.2686 62.9534 24.7883 63.0834 25.0482L61.1343 27.3871C59.575 29.3362 59.8349 31.5452 60.7444 32.4548L69.7104 42.98C81.561 56.0781 84.7835 65.8496 84.9135 69.0982V70.2676C81.483 61.5356 72.3092 49.737 68.1511 44.9292C65.9421 42.3303 60.9783 36.7428 58.7953 35.1835C56.6123 33.6242 54.7672 34.2739 54.1175 34.7937L51.3887 37.1326Z" fill="url(#paint0_linear_22880_1727)"/>
<path d="M38.5249 52.7267C39.1486 52.7267 39.5644 53.5064 39.6943 53.8962C39.3045 54.1561 38.213 55.1436 36.9656 57.0147C35.7181 58.8858 36.4458 60.653 36.9656 61.3028L39.3045 64.4214C39.6164 65.3569 38.6548 65.5908 38.135 65.5908L35.4063 63.2519C33.847 62.0824 32.6775 62.0824 31.5081 62.8621C30.3386 63.7716 27.9217 65.5908 27.6098 65.5908C27.298 65.5908 26.9601 65.0711 26.8302 64.8112L28.7793 62.4722C30.3386 60.5231 30.0787 58.3141 29.1691 57.4045L20.2032 46.8793C8.3526 33.7813 5.13006 24.0097 5.00012 20.7612V19.5918C8.43056 28.3238 17.6044 40.1224 21.7625 44.9302C23.9715 47.5291 28.9352 53.1166 31.1182 54.6759C33.3012 56.2351 35.1464 55.5854 35.7961 55.0657L38.5249 52.7267Z" fill="url(#paint1_linear_22880_1727)"/>
<path d="M52.187 51.4732C52.1721 50.8496 52.9416 50.4153 53.3282 50.2761C53.5974 50.6596 54.6107 51.7273 56.511 52.9297C58.4113 54.1321 60.1607 53.3625 60.7978 52.8274L63.8597 50.4147C64.7876 50.0806 65.0443 51.0363 65.0567 51.5559L62.7836 54.3397C61.6517 55.9265 61.6796 57.0956 62.4869 58.2461C63.4241 59.3936 65.3004 61.7664 65.3079 62.0781C65.3153 62.3899 64.8038 62.7401 64.5471 62.8762L62.1623 60.9834C60.1765 59.4711 57.9744 59.7836 57.0867 60.7146L46.7785 69.9291C33.9669 82.0889 24.275 85.5437 21.0306 85.7511L19.8614 85.779C28.5091 82.1412 40.0855 72.6884 44.7927 68.4168C47.3381 66.1464 52.8056 61.0508 54.3123 58.8312C55.8191 56.6116 55.1255 54.7824 54.5904 54.1453L52.187 51.4732Z" fill="url(#paint2_linear_22880_1727)"/>
<path d="M37.3721 38.3032C37.3869 38.9267 36.6174 39.361 36.2308 39.5002C35.9617 39.1167 34.9484 38.0491 33.0481 36.8467C31.1478 35.6442 29.3984 36.4139 28.7613 36.949L25.6994 39.3617C24.7715 39.6958 24.5147 38.7401 24.5023 38.2205L26.7755 35.4367C27.9074 33.8499 27.8795 32.6808 27.0722 31.5302C26.135 30.3828 24.2586 28.01 24.2512 27.6982C24.2438 27.3865 24.7553 27.0363 25.012 26.9002L27.3968 28.793C29.3826 30.3053 31.5847 29.9928 32.4723 29.0617L42.7806 19.8472C55.5922 7.68746 65.284 4.23268 68.5285 4.02526L69.6977 3.99735C61.05 7.63517 49.4736 17.0879 44.7664 21.3596C42.221 23.6299 36.7535 28.7256 35.2468 30.9452C33.74 33.1648 34.4336 34.9939 34.9687 35.631L37.3721 38.3032Z" fill="url(#paint3_linear_22880_1727)"/>
<defs>
<linearGradient id="paint0_linear_22880_1727" x1="50.2192" y1="24.6907" x2="85.6931" y2="69.8455" gradientUnits="userSpaceOnUse">
<stop offset="0.302885"/>
<stop offset="1" stop-color="#737373" stop-opacity="0"/>
</linearGradient>
<linearGradient id="paint1_linear_22880_1727" x1="39.6943" y1="65.1687" x2="4.22048" y2="20.0139" gradientUnits="userSpaceOnUse">
<stop offset="0.302885"/>
<stop offset="1" stop-color="#737373" stop-opacity="0"/>
</linearGradient>
<linearGradient id="paint2_linear_22880_1727" x1="64.5975" y1="50.0071" x2="20.302" y2="86.5484" gradientUnits="userSpaceOnUse">
<stop offset="0.302885"/>
<stop offset="1" stop-color="#737373" stop-opacity="0"/>
</linearGradient>
<linearGradient id="paint3_linear_22880_1727" x1="24.9616" y1="39.7692" x2="69.257" y2="3.228" gradientUnits="userSpaceOnUse">
<stop offset="0.302885"/>
<stop offset="1" stop-color="#737373" stop-opacity="0"/>
</linearGradient>
</defs>
</svg>
