<?xml version="1.0" encoding="utf-8"?>
<!-- Generator: Adobe Illustrator 27.7.0, SVG Export Plug-In . SVG Version: 6.00 Build 0)  -->
<svg version="1.1" id="Layer_1" xmlns="http://www.w3.org/2000/svg" xmlns:xlink="http://www.w3.org/1999/xlink" x="0px" y="0px"
	 viewBox="0 0 3000 3000" style="enable-background:new 0 0 3000 3000;" xml:space="preserve">
<style type="text/css">
	.st0{display:none;}
	.st1{display:inline;}
	
		.st2{clip-path:url(#SVGID_00000054253228518396516780000008351196659895353253_);fill:url(#SVGID_00000089570743718146889480000013446595045898059176_);}
	
		.st3{clip-path:url(#SVGID_00000062878107868503564750000015008384518512693165_);fill:url(#SVGID_00000173135971378756114770000016734104549193616037_);}
	
		.st4{clip-path:url(#SVGID_00000062876395570608604060000017853151707900162738_);fill:url(#SVGID_00000003076535962221266780000003083057490948992144_);}
	.st5{filter:url(#Adobe_OpacityMaskFilter);}
	
		.st6{clip-path:url(#SVGID_00000171702471209603403960000015593230233413305232_);fill:url(#SVGID_00000040544859134631016470000002102707961850283190_);}
	
		.st7{clip-path:url(#SVGID_00000171702471209603403960000015593230233413305232_);mask:url(#SVGID_00000082342956142590295110000003015607306978334895_);fill:url(#SVGID_00000168096625095349938280000013252122394923901870_);}
	.st8{filter:url(#Adobe_OpacityMaskFilter_00000068675457733062679700000015305219010594739869_);}
	
		.st9{clip-path:url(#SVGID_00000165222232266272782420000005153142472430196411_);fill:url(#SVGID_00000178911636295072907800000011787782484510374016_);}
	
		.st10{clip-path:url(#SVGID_00000165222232266272782420000005153142472430196411_);mask:url(#SVGID_00000162334855462916341490000004538216092127136694_);fill:url(#SVGID_00000140733556006235563430000013808671715538376371_);}
	.st11{filter:url(#Adobe_OpacityMaskFilter_00000047062352445467599370000004943052364641332877_);}
	
		.st12{clip-path:url(#SVGID_00000011032635215223863720000006748447333553424056_);fill:url(#SVGID_00000055674958222163026370000010295578888795636400_);}
	
		.st13{clip-path:url(#SVGID_00000011032635215223863720000006748447333553424056_);mask:url(#SVGID_00000049190401175937189020000010695193922310769078_);fill:url(#SVGID_00000181799584706496893370000004865687005214411148_);}
	.st14{filter:url(#Adobe_OpacityMaskFilter_00000052074131987478002950000003865856151242874516_);}
	
		.st15{clip-path:url(#SVGID_00000072991731232557642850000006971656674206789037_);fill:url(#SVGID_00000039132572030357254240000011945570381692175513_);}
	
		.st16{clip-path:url(#SVGID_00000072991731232557642850000006971656674206789037_);mask:url(#SVGID_00000060748865481042865360000005796728556862502297_);fill:url(#SVGID_00000145759021385887493070000016658774334671718842_);}
	.st17{filter:url(#Adobe_OpacityMaskFilter_00000026854063338439285290000006845318206097788571_);}
	
		.st18{clip-path:url(#SVGID_00000070824492711216765620000007297871821077155756_);fill:url(#SVGID_00000003816118960496686260000017917443415616729003_);}
	
		.st19{clip-path:url(#SVGID_00000070824492711216765620000007297871821077155756_);mask:url(#SVGID_00000034083770920731330630000000289452908895562369_);fill:url(#SVGID_00000057841786702978897810000008168096062730846373_);}
	.st20{display:inline;fill-rule:evenodd;clip-rule:evenodd;fill:#283678;}
	
		.st21{clip-path:url(#SVGID_00000057150399973288010780000003860185488557068696_);fill:url(#SVGID_00000103236330506736243970000017868999339628474796_);}
	
		.st22{clip-path:url(#SVGID_00000176728595111035455340000013458931133699219328_);fill:url(#SVGID_00000132084411331658247460000008218524741076759448_);}
	
		.st23{clip-path:url(#SVGID_00000101078134360583808440000011068060381549674907_);fill:url(#SVGID_00000051377294216369802730000012247396215261677497_);}
	.st24{filter:url(#Adobe_OpacityMaskFilter_00000093135620792832728180000012328874210272203657_);}
	
		.st25{clip-path:url(#SVGID_00000064345469817240587890000013689427665339027644_);fill:url(#SVGID_00000034077696240945480160000001746713337722304944_);}
	
		.st26{clip-path:url(#SVGID_00000064345469817240587890000013689427665339027644_);mask:url(#SVGID_00000079444219826430519220000001240752011363868321_);fill:url(#SVGID_00000066512463508582318060000001073610499540645561_);}
	.st27{filter:url(#Adobe_OpacityMaskFilter_00000168831328206310954730000015121588808115076774_);}
	
		.st28{clip-path:url(#SVGID_00000017481115465101679060000012658146684031231661_);fill:url(#SVGID_00000162351532382622758560000016515630470172782525_);}
	
		.st29{clip-path:url(#SVGID_00000017481115465101679060000012658146684031231661_);mask:url(#SVGID_00000141428776616988738570000004310210605793298578_);fill:url(#SVGID_00000090977838235913132010000017158967783735831466_);}
	.st30{filter:url(#Adobe_OpacityMaskFilter_00000145759281935077935560000000216383753633725625_);}
	
		.st31{clip-path:url(#SVGID_00000041272844717170583210000008642529022542563973_);fill:url(#SVGID_00000023260814374711100340000017853773056505474723_);}
	
		.st32{clip-path:url(#SVGID_00000041272844717170583210000008642529022542563973_);mask:url(#SVGID_00000049905150048313889630000003855196189196258180_);fill:url(#SVGID_00000051369696109393563180000000886402178525666702_);}
	.st33{filter:url(#Adobe_OpacityMaskFilter_00000012462380053335930930000012167268335201719938_);}
	
		.st34{clip-path:url(#SVGID_00000089558753520445147150000003889510793891824297_);fill:url(#SVGID_00000152236803281022342830000010342796000024277656_);}
	
		.st35{clip-path:url(#SVGID_00000089558753520445147150000003889510793891824297_);mask:url(#SVGID_00000179633887278419439690000014120327403014489994_);fill:url(#SVGID_00000181079887334914811070000011964418962420352936_);}
	.st36{filter:url(#Adobe_OpacityMaskFilter_00000139265675764281922010000005714370652656082308_);}
	
		.st37{clip-path:url(#SVGID_00000062884259908497469210000014478160168877013919_);fill:url(#SVGID_00000067915626049213890460000018288015691228505754_);}
	
		.st38{clip-path:url(#SVGID_00000062884259908497469210000014478160168877013919_);mask:url(#SVGID_00000096747036589686628840000005051540719081561753_);fill:url(#SVGID_00000052070670526639105470000013468339419404638349_);}
	.st39{fill-rule:evenodd;clip-rule:evenodd;fill:#FFFFFF;}
	
		.st40{clip-path:url(#SVGID_00000000934993139990433180000002690849631129173124_);fill:url(#SVGID_00000063629481440450342470000010583458427933204615_);}
	
		.st41{clip-path:url(#SVGID_00000064325789407012799620000016712295446505881520_);fill:url(#SVGID_00000005967812543203681720000002760556771403959998_);}
	
		.st42{clip-path:url(#SVGID_00000105389062620773429150000015139173895448830357_);fill:url(#SVGID_00000129180374333676829370000015780870193613275570_);}
	
		.st43{clip-path:url(#SVGID_00000132780340226955803770000000086386087773305747_);fill:url(#SVGID_00000111188443659404819580000007406502190232293302_);}
	
		.st44{clip-path:url(#SVGID_00000155124616537974583470000015997298076725139847_);fill:url(#SVGID_00000072963159972505636600000009203208472272189363_);}
</style>
<g class="st0">
	<g class="st1">
		<defs>
			<path id="SVGID_1_" d="M363.7,842.9L363.7,842.9l0,283.4h283.6v283.6H363.6v283.4v0H1214h0v-283.4H930.6v-223.6
				c0-49.1-18.3-78.6-40.4-100.4L682.9,878.7c-20.8-20.9-53-35.8-90-35.8H363.7z"/>
		</defs>
		<clipPath id="SVGID_00000037669161531034166740000005537290065484718475_">
			<use xlink:href="#SVGID_1_"  style="overflow:visible;"/>
		</clipPath>
		
			<linearGradient id="SVGID_00000116929794199542611310000016661005457466178981_" gradientUnits="userSpaceOnUse" x1="6932.7734" y1="1830.0497" x2="6943.6611" y2="1830.0497" gradientTransform="matrix(1.1517 80.0417 80.0417 -1.1517 -153679.5625 -551799.0625)">
			<stop  offset="0" style="stop-color:#2BACE2"/>
			<stop  offset="0.2268" style="stop-color:#2E85BA"/>
			<stop  offset="0.4949" style="stop-color:#2B639B"/>
			<stop  offset="0.7226" style="stop-color:#294B87"/>
			<stop  offset="0.898" style="stop-color:#283C7D"/>
			<stop  offset="1" style="stop-color:#283679"/>
		</linearGradient>
		
			<polygon style="clip-path:url(#SVGID_00000037669161531034166740000005537290065484718475_);fill:url(#SVGID_00000116929794199542611310000016661005457466178981_);" points="
			1213.9,830.7 1226.3,1693.1 363.8,1705.5 351.4,843.1 		"/>
	</g>
	<g class="st1">
		<defs>
			<path id="SVGID_00000005971342836040716720000007722927371573747632_" d="M930.7,842.9L930.7,842.9l0,229
				c0,31.5,13.3,68.9,36.6,91l207,207c26.4,26.3,53.8,40,99.8,40h223.6v283.4H1781h0v-229c0-40.4-18-72.4-39.3-93.7l-244.2-244.2
				h-283.3V842.9H930.7z"/>
		</defs>
		<clipPath id="SVGID_00000160155715613074153030000001241680982156777620_">
			<use xlink:href="#SVGID_00000005971342836040716720000007722927371573747632_"  style="overflow:visible;"/>
		</clipPath>
		
			<linearGradient id="SVGID_00000160892913653989651880000013760114853384550541_" gradientUnits="userSpaceOnUse" x1="6932.7734" y1="1836.4766" x2="6943.6611" y2="1836.4766" gradientTransform="matrix(1.1517 80.0417 80.0417 -1.1517 -153627.125 -551799.8125)">
			<stop  offset="0" style="stop-color:#2BACE2"/>
			<stop  offset="0.2268" style="stop-color:#2E85BA"/>
			<stop  offset="0.4949" style="stop-color:#2B639B"/>
			<stop  offset="0.7226" style="stop-color:#294B87"/>
			<stop  offset="0.898" style="stop-color:#283C7D"/>
			<stop  offset="1" style="stop-color:#283679"/>
		</linearGradient>
		
			<polygon style="clip-path:url(#SVGID_00000160155715613074153030000001241680982156777620_);fill:url(#SVGID_00000160892913653989651880000013760114853384550541_);" points="
			1780.8,830.7 1793.3,1693.1 930.8,1705.5 918.4,843.1 		"/>
	</g>
	<g class="st1">
		<defs>
			<path id="SVGID_00000016042309266725274150000015723938068904783011_" d="M2064.4,842.9v283.4h283.4v283.6h-283.4v-283.3H1781
				V842.9h-283.4l-0.2,283.4l283.4,0.3l-0.2,227c0.2,32.2,11,66.9,34.3,90.2l210.6,210.6c29.6,29.6,63.2,37.6,89,38.9h516.9h0
				v-512.6c0-30.1-9.1-63.7-37.8-92.5l-206.1-205.8c-27.9-28.2-62.5-39.5-93.9-39.5H2064.4z"/>
		</defs>
		<clipPath id="SVGID_00000057139191054120642970000004605472436859698842_">
			<use xlink:href="#SVGID_00000016042309266725274150000015723938068904783011_"  style="overflow:visible;"/>
		</clipPath>
		
			<linearGradient id="SVGID_00000002385398262301120510000015172428329604174490_" gradientUnits="userSpaceOnUse" x1="6932.7734" y1="1844.5129" x2="6943.6611" y2="1844.5129" gradientTransform="matrix(1.1517 80.0417 80.0417 -1.1517 -153561.8906 -551800.75)">
			<stop  offset="0" style="stop-color:#2BACE2"/>
			<stop  offset="0.2268" style="stop-color:#2E85BA"/>
			<stop  offset="0.4949" style="stop-color:#2B639B"/>
			<stop  offset="0.7226" style="stop-color:#294B87"/>
			<stop  offset="0.898" style="stop-color:#283C7D"/>
			<stop  offset="1" style="stop-color:#283679"/>
		</linearGradient>
		
			<polygon style="clip-path:url(#SVGID_00000057139191054120642970000004605472436859698842_);fill:url(#SVGID_00000002385398262301120510000015172428329604174490_);" points="
			2631.2,826.6 2643.7,1693.1 1497.7,1709.6 1485.2,843.1 		"/>
	</g>
	<g class="st1">
		<defs>
			<path id="SVGID_00000098915160415166406610000000171695782756072366_" d="M647.2,1126.3v283.6h283.4v-226.5
				c0-19.7-6.2-30.4-13.8-39.2c-10.2-11.6-24.3-17.8-41.4-17.8H647.2z"/>
		</defs>
		<clipPath id="SVGID_00000096039572828231264810000014888516486105744030_">
			<use xlink:href="#SVGID_00000098915160415166406610000000171695782756072366_"  style="overflow:visible;"/>
		</clipPath>
		<defs>
			<filter id="Adobe_OpacityMaskFilter" filterUnits="userSpaceOnUse" x="647.2" y="1126.3" width="283.4" height="283.6">
				<feColorMatrix  type="matrix" values="1 0 0 0 0  0 1 0 0 0  0 0 1 0 0  0 0 0 1 0"/>
			</filter>
		</defs>
		
			<mask maskUnits="userSpaceOnUse" x="647.2" y="1126.3" width="283.4" height="283.6" id="SVGID_00000090992180341244797880000017415360652264834955_">
			<g class="st5">
				
					<linearGradient id="SVGID_00000112614672066820394040000008442766057388516231_" gradientUnits="userSpaceOnUse" x1="6934.9346" y1="2200.6077" x2="6945.8223" y2="2200.6077" gradientTransform="matrix(0 -26.0451 -26.0451 0 58104.043 182031.1719)">
					<stop  offset="0" style="stop-color:#000000"/>
					<stop  offset="1" style="stop-color:#FFFFFF"/>
				</linearGradient>
				
					<rect x="647.2" y="1126.3" style="clip-path:url(#SVGID_00000096039572828231264810000014888516486105744030_);fill:url(#SVGID_00000112614672066820394040000008442766057388516231_);" width="283.4" height="283.6"/>
			</g>
		</mask>
		
			<linearGradient id="SVGID_00000169554153524307441770000011594679818468330933_" gradientUnits="userSpaceOnUse" x1="6934.9351" y1="2200.6079" x2="6945.8223" y2="2200.6079" gradientTransform="matrix(0 -26.0451 -26.0451 0 58104.043 182031.1719)">
			<stop  offset="0" style="stop-color:#283679"/>
			<stop  offset="1" style="stop-color:#283679"/>
		</linearGradient>
		
			<rect x="647.2" y="1126.3" style="clip-path:url(#SVGID_00000096039572828231264810000014888516486105744030_);mask:url(#SVGID_00000090992180341244797880000017415360652264834955_);fill:url(#SVGID_00000169554153524307441770000011594679818468330933_);" width="283.4" height="283.6"/>
	</g>
	<g class="st1">
		<defs>
			<path id="SVGID_00000167359526922090110840000001609558044540450978_" d="M1214,1126.3v226.5c0,19.7,6.2,30.4,13.8,39
				c10.2,11.8,24.3,18,41.4,18h228.3v-283.6H1214z"/>
		</defs>
		<clipPath id="SVGID_00000177452636593709802530000001749791672325683626_">
			<use xlink:href="#SVGID_00000167359526922090110840000001609558044540450978_"  style="overflow:visible;"/>
		</clipPath>
		<defs>
			
				<filter id="Adobe_OpacityMaskFilter_00000121975931981226005600000008929873278103245721_" filterUnits="userSpaceOnUse" x="1214" y="1126.3" width="283.4" height="283.6">
				<feColorMatrix  type="matrix" values="1 0 0 0 0  0 1 0 0 0  0 0 1 0 0  0 0 0 1 0"/>
			</filter>
		</defs>
		
			<mask maskUnits="userSpaceOnUse" x="1214" y="1126.3" width="283.4" height="283.6" id="SVGID_00000061456741709500168570000007302605584297241252_">
			<g style="filter:url(#Adobe_OpacityMaskFilter_00000121975931981226005600000008929873278103245721_);">
				
					<linearGradient id="SVGID_00000048470454725928944940000002688611219099122327_" gradientUnits="userSpaceOnUse" x1="7192.8057" y1="1918.8842" x2="7203.6934" y2="1918.8842" gradientTransform="matrix(-26.0309 0 0 26.0309 188732.7031 -48682.1914)">
					<stop  offset="0" style="stop-color:#000000"/>
					<stop  offset="1" style="stop-color:#FFFFFF"/>
				</linearGradient>
				
					<rect x="1214" y="1126.3" style="clip-path:url(#SVGID_00000177452636593709802530000001749791672325683626_);fill:url(#SVGID_00000048470454725928944940000002688611219099122327_);" width="283.4" height="283.6"/>
			</g>
		</mask>
		
			<linearGradient id="SVGID_00000108276529709159299440000002957446972845767298_" gradientUnits="userSpaceOnUse" x1="7192.8057" y1="1918.8844" x2="7203.6934" y2="1918.8844" gradientTransform="matrix(-26.0309 0 0 26.0309 188732.7031 -48682.1914)">
			<stop  offset="0" style="stop-color:#283679"/>
			<stop  offset="1" style="stop-color:#283679"/>
		</linearGradient>
		
			<rect x="1214" y="1126.3" style="clip-path:url(#SVGID_00000177452636593709802530000001749791672325683626_);mask:url(#SVGID_00000061456741709500168570000007302605584297241252_);fill:url(#SVGID_00000108276529709159299440000002957446972845767298_);" width="283.4" height="283.6"/>
	</g>
	<g class="st1">
		<defs>
			<path id="SVGID_00000026844299190601776140000014641071404177542276_" d="M1497.6,1409.9v283.4H1781v-228.4
				c0-17.1-6-31.2-17.8-41.4c-8.8-7.6-19.4-13.7-39.2-13.7H1497.6z"/>
		</defs>
		<clipPath id="SVGID_00000061451191538429827540000013595069098181727411_">
			<use xlink:href="#SVGID_00000026844299190601776140000014641071404177542276_"  style="overflow:visible;"/>
		</clipPath>
		<defs>
			
				<filter id="Adobe_OpacityMaskFilter_00000062166190930242842210000006706006296183258013_" filterUnits="userSpaceOnUse" x="1497.6" y="1409.9" width="283.4" height="283.4">
				<feColorMatrix  type="matrix" values="1 0 0 0 0  0 1 0 0 0  0 0 1 0 0  0 0 0 1 0"/>
			</filter>
		</defs>
		
			<mask maskUnits="userSpaceOnUse" x="1497.6" y="1409.9" width="283.4" height="283.4" id="SVGID_00000086681728991983419800000013620656127204104109_">
			<g style="filter:url(#Adobe_OpacityMaskFilter_00000062166190930242842210000006706006296183258013_);">
				
					<linearGradient id="SVGID_00000007406082463359641780000010848594448063803034_" gradientUnits="userSpaceOnUse" x1="6925.0454" y1="2171.0923" x2="6935.9336" y2="2171.0923" gradientTransform="matrix(0 -26.0309 -26.0309 0 58154.7734 181958.3438)">
					<stop  offset="0" style="stop-color:#000000"/>
					<stop  offset="0.8883" style="stop-color:#FFFFFF"/>
					<stop  offset="1" style="stop-color:#FFFFFF"/>
				</linearGradient>
				
					<rect x="1497.6" y="1409.9" style="clip-path:url(#SVGID_00000061451191538429827540000013595069098181727411_);fill:url(#SVGID_00000007406082463359641780000010848594448063803034_);" width="283.4" height="283.4"/>
			</g>
		</mask>
		
			<linearGradient id="SVGID_00000030446367700624776430000018334424892625100186_" gradientUnits="userSpaceOnUse" x1="6925.0454" y1="2171.0928" x2="6935.9336" y2="2171.0928" gradientTransform="matrix(0 -26.0309 -26.0309 0 58154.7734 181958.3438)">
			<stop  offset="0" style="stop-color:#283679"/>
			<stop  offset="0.8883" style="stop-color:#283679"/>
			<stop  offset="1" style="stop-color:#283679"/>
		</linearGradient>
		
			<rect x="1497.6" y="1409.9" style="clip-path:url(#SVGID_00000061451191538429827540000013595069098181727411_);mask:url(#SVGID_00000086681728991983419800000013620656127204104109_);fill:url(#SVGID_00000030446367700624776430000018334424892625100186_);" width="283.4" height="283.4"/>
	</g>
	<g class="st1">
		<defs>
			<path id="SVGID_00000106864308873374569950000017697141558267232128_" d="M2347.8,1126.3v283.4h283.6v-228.3
				c0-17-6.2-31.1-17.8-41.4c-8.8-7.6-19.5-13.8-39.2-13.8H2347.8z"/>
		</defs>
		<clipPath id="SVGID_00000169548398697373804680000016714408581452623744_">
			<use xlink:href="#SVGID_00000106864308873374569950000017697141558267232128_"  style="overflow:visible;"/>
		</clipPath>
		<defs>
			
				<filter id="Adobe_OpacityMaskFilter_00000057144054194696024030000010692748608489647779_" filterUnits="userSpaceOnUse" x="2347.8" y="1126.3" width="283.6" height="283.4">
				<feColorMatrix  type="matrix" values="1 0 0 0 0  0 1 0 0 0  0 0 1 0 0  0 0 0 1 0"/>
			</filter>
		</defs>
		
			<mask maskUnits="userSpaceOnUse" x="2347.8" y="1126.3" width="283.6" height="283.4" id="SVGID_00000158730429744241201460000004600122915403016126_">
			<g style="filter:url(#Adobe_OpacityMaskFilter_00000057144054194696024030000010692748608489647779_);">
				
					<linearGradient id="SVGID_00000100373818396595745210000006673649831585700011_" gradientUnits="userSpaceOnUse" x1="6934.9385" y1="2141.4268" x2="6945.8262" y2="2141.4268" gradientTransform="matrix(0 -26.0309 -26.0309 0 58232.8945 181932.375)">
					<stop  offset="0" style="stop-color:#000000"/>
					<stop  offset="0.8883" style="stop-color:#FFFFFF"/>
					<stop  offset="1" style="stop-color:#FFFFFF"/>
				</linearGradient>
				
					<rect x="2347.9" y="1126.3" style="clip-path:url(#SVGID_00000169548398697373804680000016714408581452623744_);fill:url(#SVGID_00000100373818396595745210000006673649831585700011_);" width="283.6" height="283.4"/>
			</g>
		</mask>
		
			<linearGradient id="SVGID_00000005246426782163960810000013353881578249922485_" gradientUnits="userSpaceOnUse" x1="6934.9385" y1="2141.4272" x2="6945.8262" y2="2141.4272" gradientTransform="matrix(0 -26.0309 -26.0309 0 58232.9023 181932.4062)">
			<stop  offset="0" style="stop-color:#283679"/>
			<stop  offset="0.8883" style="stop-color:#283679"/>
			<stop  offset="1" style="stop-color:#283679"/>
		</linearGradient>
		
			<rect x="2347.8" y="1126.3" style="clip-path:url(#SVGID_00000169548398697373804680000016714408581452623744_);mask:url(#SVGID_00000158730429744241201460000004600122915403016126_);fill:url(#SVGID_00000005246426782163960810000013353881578249922485_);" width="283.6" height="283.4"/>
	</g>
	<g class="st1">
		<defs>
			<path id="SVGID_00000009562116006163472170000000040357060516759447_" d="M1780.7,1126.3v228.4c0,17.1,6.2,31.2,17.8,41.4
				c8.8,7.6,19.5,13.8,39.2,13.8h226.5v-283.6H1780.7z"/>
		</defs>
		<clipPath id="SVGID_00000030449405582128594590000005329987003593273743_">
			<use xlink:href="#SVGID_00000009562116006163472170000000040357060516759447_"  style="overflow:visible;"/>
		</clipPath>
		<defs>
			
				<filter id="Adobe_OpacityMaskFilter_00000085961101429335254410000010554905949518843280_" filterUnits="userSpaceOnUse" x="1780.7" y="1126.3" width="283.6" height="283.6">
				<feColorMatrix  type="matrix" values="1 0 0 0 0  0 1 0 0 0  0 0 1 0 0  0 0 0 1 0"/>
			</filter>
		</defs>
		
			<mask maskUnits="userSpaceOnUse" x="1780.7" y="1126.3" width="283.6" height="283.6" id="SVGID_00000098916618040770323140000014397946232862609294_">
			<g style="filter:url(#Adobe_OpacityMaskFilter_00000085961101429335254410000010554905949518843280_);">
				
					<linearGradient id="SVGID_00000101090401842613465500000012074519150777068173_" gradientUnits="userSpaceOnUse" x1="6930.7056" y1="1680.9181" x2="6941.5933" y2="1680.9181" gradientTransform="matrix(0 26.0451 26.0451 0 -41857.2383 -179384.8281)">
					<stop  offset="0" style="stop-color:#000000"/>
					<stop  offset="1" style="stop-color:#FFFFFF"/>
				</linearGradient>
				
					<rect x="1780.7" y="1126.3" style="clip-path:url(#SVGID_00000030449405582128594590000005329987003593273743_);fill:url(#SVGID_00000101090401842613465500000012074519150777068173_);" width="283.6" height="283.6"/>
			</g>
		</mask>
		
			<linearGradient id="SVGID_00000005982320795889122070000001218662755261940897_" gradientUnits="userSpaceOnUse" x1="6930.7061" y1="1680.9181" x2="6941.5933" y2="1680.9181" gradientTransform="matrix(0 26.0451 26.0451 0 -41857.2383 -179384.8281)">
			<stop  offset="0" style="stop-color:#283679"/>
			<stop  offset="1" style="stop-color:#283679"/>
		</linearGradient>
		
			<rect x="1780.7" y="1126.3" style="clip-path:url(#SVGID_00000030449405582128594590000005329987003593273743_);mask:url(#SVGID_00000098916618040770323140000014397946232862609294_);fill:url(#SVGID_00000005982320795889122070000001218662755261940897_);" width="283.6" height="283.6"/>
	</g>
	<path class="st20" d="M389.4,1951.4L288.5,2052c-7.3,7.4-16,11.6-24.9,11.9c-9.2,0.1-18.5-3.9-26-11.6l-101.3-100.9v205.7H82.5
		v-259.3h65c8.6,0,14.2,2.9,19,7.7L263,2002l96.7-96.7c4.3-4.4,9.3-7.4,16.5-7.4H443v259.3h-54.1L389.4,1951.4z M2086.5,2103.4h53.7
		v-152h-53.7v-53.7h44.5c6.2,0,11.5,2.2,15.7,6.4l40.6,40.6c4.3,4.4,6.6,9.6,6.6,15.7v142.8h53.7v53.7H2194h-53.8h-53.7V2103.4z
		 M543.2,2150.7l-40.8-40.8c-4.3-4.3-6.4-9.6-6.4-15.6v-133.7c0-6.2,2.1-11.4,6.6-15.7l40.6-40.6c4.3-4.3,9.6-6.4,15.6-6.4h186.3
		c6,0,11.3,2.2,15.6,6.4l40.8,40.6c4.3,4.4,6.4,9.6,6.4,15.7v133.7c0,6-2.2,11.3-6.4,15.6l-40.8,40.8c-4.3,4.3-9.6,6.4-15.6,6.4
		H558.9C552.8,2157.1,547.5,2154.9,543.2,2150.7 M1146.6,2027.3l20.3,20.5c4.3,4.3,6.4,9.6,6.4,15.7v30.6c0,6.2-2.1,11.5-6.4,15.8
		l-40.8,40.8c-4.3,4.3-9.6,6.4-15.7,6.4h-249v-259.3h249.2c6.2,0,11.3,2.2,15.7,6.4l40.7,40.6c4.3,4.4,6.4,9.6,6.4,15.7v30.8
		c0,6.1-2.1,11.3-6.4,15.7L1146.6,2027.3z M1226.7,1897.8h53.7v259.3h-53.7V1897.8z M1380.9,2150.7l-40.7-40.8
		c-4.3-4.3-6.4-9.6-6.4-15.6v-196.5h53.7v205.7h234.6v53.7h-225.4C1390.5,2157.1,1385.2,2154.9,1380.9,2150.7 M1729.1,2000.5h250.6
		v53.7h-250.6v49.2h250.6v53.7h-241.3c-6.2,0-11.5-2.2-15.7-6.6l-40.6-40.6c-4.3-4.3-6.4-9.6-6.4-15.6l-0.2-133.5
		c0-6.2,2.2-11.4,6.6-15.7l40.6-40.8c4.3-4.3,9.6-6.4,15.7-6.4h241.3v53.3l-250.6,0.4V2000.5z M2506.3,2054.2h-195.8
		c-6.2,0-11.3-2.1-15.7-6.4l-40.6-40.6c-4.3-4.4-6.4-9.6-6.4-15.7v-93.6h53.7v102.8h204.9v-102.8h53.4v102.8h-53.2l46.7,46.8
		c4.4,4.3,6.6,9.6,6.6,15.7v94h-53.4V2054.2z M2660.9,2150.7l-40.6-40.8c-4.3-4.3-6.6-9.6-6.6-15.6v-196.5h241
		c6,0,11.3,2.2,15.6,6.4l40.8,40.6c4.3,4.4,6.4,9.6,6.4,15.7v196.5h-240.9C2670.5,2157.1,2665.1,2154.9,2660.9,2150.7 M549.6,2103.4
		h204.7v-152H549.6V2103.4z M915,1951v49.5h204.6v-49.1L915,1951z M915,2103.4h204.6v-49.2H915V2103.4z M2863.8,2103.4l0.3-152.4
		c-65.3,0-131.7-1.3-196.6,0.4v152H2863.8z"/>
</g>
<g class="st0">
	<g class="st1">
		<defs>
			<path id="SVGID_00000018954774373548691180000000727873454614266538_" d="M366.2,777.9v283.4h283.6v283.6H366.2v283.4h850.4
				v-283.4H933.1v-223.6c0-49.1-18.3-78.6-40.4-100.4L685.4,813.7c-20.8-20.9-53-35.8-90-35.8H366.2z"/>
		</defs>
		<clipPath id="SVGID_00000070103701198812756730000009327530529504649907_">
			<use xlink:href="#SVGID_00000018954774373548691180000000727873454614266538_"  style="overflow:visible;"/>
		</clipPath>
		
			<linearGradient id="SVGID_00000110443977046751942920000001299459545726065855_" gradientUnits="userSpaceOnUse" x1="6931.79" y1="1834.6559" x2="6943.1836" y2="1834.6559" gradientTransform="matrix(1.1005 76.4853 76.4853 -1.1005 -147165.1406 -527221.8125)">
			<stop  offset="0" style="stop-color:#2BACE2"/>
			<stop  offset="0.2268" style="stop-color:#2E85BA"/>
			<stop  offset="0.4949" style="stop-color:#2B639B"/>
			<stop  offset="0.7226" style="stop-color:#294B87"/>
			<stop  offset="0.898" style="stop-color:#283C7D"/>
			<stop  offset="1" style="stop-color:#283679"/>
		</linearGradient>
		
			<polygon style="clip-path:url(#SVGID_00000070103701198812756730000009327530529504649907_);fill:url(#SVGID_00000110443977046751942920000001299459545726065855_);" points="
			1216.4,765.7 1228.8,1628.1 366.4,1640.5 354,778.1 		"/>
	</g>
	<g class="st1">
		<defs>
			<path id="SVGID_00000173878576802096369040000006335114781603601794_" d="M933.1,777.9v229c0,31.4,13.3,69,36.6,91l207,207
				c26.4,26.3,53.8,40,99.8,40h223.6v283.4h283.4v-229c0-40.5-18-72.4-39.4-93.7l-244.2-244.2h-283.2V777.9H933.1z"/>
		</defs>
		<clipPath id="SVGID_00000026845155865725380090000016203365913124681869_">
			<use xlink:href="#SVGID_00000173878576802096369040000006335114781603601794_"  style="overflow:visible;"/>
		</clipPath>
		
			<linearGradient id="SVGID_00000150815328095238022600000015773034396960287877_" gradientUnits="userSpaceOnUse" x1="6931.79" y1="1841.412" x2="6943.1836" y2="1841.412" gradientTransform="matrix(1.1005 76.4853 76.4853 -1.1005 -147115.0312 -527222.5)">
			<stop  offset="0" style="stop-color:#2BACE2"/>
			<stop  offset="0.2268" style="stop-color:#2E85BA"/>
			<stop  offset="0.4949" style="stop-color:#2B639B"/>
			<stop  offset="0.7226" style="stop-color:#294B87"/>
			<stop  offset="0.898" style="stop-color:#283C7D"/>
			<stop  offset="1" style="stop-color:#283679"/>
		</linearGradient>
		
			<polygon style="clip-path:url(#SVGID_00000026845155865725380090000016203365913124681869_);fill:url(#SVGID_00000150815328095238022600000015773034396960287877_);" points="
			1783.3,765.7 1795.8,1628.1 933.3,1640.5 920.9,778.1 		"/>
	</g>
	<g class="st1">
		<defs>
			<path id="SVGID_00000027604561504266790560000003084403566721888927_" d="M2066.9,777.9v283.4h283.4v283.6h-283.4v-283.2h-283.4
				V777.9h-283.4l-0.2,283.4l283.4,0.3l-0.1,227c0.1,32.2,11,66.9,34.2,90.2l210.6,210.6c29.6,29.6,63.2,37.6,88.9,38.9h516.9
				v-512.6c0-30.1-9.1-63.7-37.8-92.5L2390,817.4c-27.9-28.2-62.4-39.5-93.9-39.5H2066.9z"/>
		</defs>
		<clipPath id="SVGID_00000169560023525500714090000011289091557970244766_">
			<use xlink:href="#SVGID_00000027604561504266790560000003084403566721888927_"  style="overflow:visible;"/>
		</clipPath>
		
			<linearGradient id="SVGID_00000080897725886543355880000017921217042763200419_" gradientUnits="userSpaceOnUse" x1="6931.79" y1="1849.8595" x2="6943.1836" y2="1849.8595" gradientTransform="matrix(1.1005 76.4853 76.4853 -1.1005 -147052.7031 -527223.375)">
			<stop  offset="0" style="stop-color:#2BACE2"/>
			<stop  offset="0.2268" style="stop-color:#2E85BA"/>
			<stop  offset="0.4949" style="stop-color:#2B639B"/>
			<stop  offset="0.7226" style="stop-color:#294B87"/>
			<stop  offset="0.898" style="stop-color:#283C7D"/>
			<stop  offset="1" style="stop-color:#283679"/>
		</linearGradient>
		
			<polygon style="clip-path:url(#SVGID_00000169560023525500714090000011289091557970244766_);fill:url(#SVGID_00000080897725886543355880000017921217042763200419_);" points="
			2633.7,761.6 2646.1,1628.1 1500.2,1644.6 1487.7,778.1 		"/>
	</g>
	<g class="st1">
		<defs>
			<path id="SVGID_00000137843485295546604510000009652742716225304979_" d="M649.8,1061.3v283.6h283.4v-226.5
				c0-19.7-6.2-30.4-13.8-39.2c-10.2-11.6-24.3-17.8-41.4-17.8H649.8z"/>
		</defs>
		<clipPath id="SVGID_00000065073148886247439440000010665952675722619832_">
			<use xlink:href="#SVGID_00000137843485295546604510000009652742716225304979_"  style="overflow:visible;"/>
		</clipPath>
		<defs>
			
				<filter id="Adobe_OpacityMaskFilter_00000029749638372990819670000002108775861630323329_" filterUnits="userSpaceOnUse" x="649.8" y="1061.3" width="283.4" height="283.6">
				<feColorMatrix  type="matrix" values="1 0 0 0 0  0 1 0 0 0  0 0 1 0 0  0 0 0 1 0"/>
			</filter>
		</defs>
		
			<mask maskUnits="userSpaceOnUse" x="649.8" y="1061.3" width="283.4" height="283.6" id="SVGID_00000031184262704267902010000008047393735092513720_">
			<g style="filter:url(#Adobe_OpacityMaskFilter_00000029749638372990819670000002108775861630323329_);">
				
					<linearGradient id="SVGID_00000181798033735077037950000012854549349101255863_" gradientUnits="userSpaceOnUse" x1="6937.437" y1="2186.4885" x2="6948.8306" y2="2186.4885" gradientTransform="matrix(0 -24.8879 -24.8879 0 55208.5586 174003.1406)">
					<stop  offset="0" style="stop-color:#000000"/>
					<stop  offset="1" style="stop-color:#FFFFFF"/>
				</linearGradient>
				
					<rect x="649.7" y="1061.3" style="clip-path:url(#SVGID_00000065073148886247439440000010665952675722619832_);fill:url(#SVGID_00000181798033735077037950000012854549349101255863_);" width="283.4" height="283.6"/>
			</g>
		</mask>
		
			<linearGradient id="SVGID_00000171680675348752297050000013592485606424126619_" gradientUnits="userSpaceOnUse" x1="6937.4375" y1="2186.4883" x2="6948.8306" y2="2186.4883" gradientTransform="matrix(0 -24.8879 -24.8879 0 55208.5586 174003.1406)">
			<stop  offset="0" style="stop-color:#283679"/>
			<stop  offset="1" style="stop-color:#283679"/>
		</linearGradient>
		
			<rect x="649.8" y="1061.3" style="clip-path:url(#SVGID_00000065073148886247439440000010665952675722619832_);mask:url(#SVGID_00000031184262704267902010000008047393735092513720_);fill:url(#SVGID_00000171680675348752297050000013592485606424126619_);" width="283.4" height="283.6"/>
	</g>
	<g class="st1">
		<defs>
			<path id="SVGID_00000033334464671657327130000008969503445014014891_" d="M1216.5,1061.3v226.5c0,19.7,6.2,30.4,13.8,39.1
				c10.2,11.8,24.3,18,41.4,18h228.2v-283.6H1216.5z"/>
		</defs>
		<clipPath id="SVGID_00000020391809728769199130000017552233460396328322_">
			<use xlink:href="#SVGID_00000033334464671657327130000008969503445014014891_"  style="overflow:visible;"/>
		</clipPath>
		<defs>
			
				<filter id="Adobe_OpacityMaskFilter_00000113328237681196675310000009038934433876176571_" filterUnits="userSpaceOnUse" x="1216.5" y="1061.3" width="283.4" height="283.6">
				<feColorMatrix  type="matrix" values="1 0 0 0 0  0 1 0 0 0  0 0 1 0 0  0 0 0 1 0"/>
			</filter>
		</defs>
		
			<mask maskUnits="userSpaceOnUse" x="1216.5" y="1061.3" width="283.4" height="283.6" id="SVGID_00000147942409426490020990000010453180105312220553_">
			<g style="filter:url(#Adobe_OpacityMaskFilter_00000113328237681196675310000009038934433876176571_);">
				
					<linearGradient id="SVGID_00000181782924868713967070000005050386968081282709_" gradientUnits="userSpaceOnUse" x1="7177.4141" y1="1916.1272" x2="7188.8071" y2="1916.1272" gradientTransform="matrix(-24.8743 0 0 24.8743 180033.1719 -46459.25)">
					<stop  offset="0" style="stop-color:#000000"/>
					<stop  offset="1" style="stop-color:#FFFFFF"/>
				</linearGradient>
				
					<rect x="1216.6" y="1061.3" style="clip-path:url(#SVGID_00000020391809728769199130000017552233460396328322_);fill:url(#SVGID_00000181782924868713967070000005050386968081282709_);" width="283.4" height="283.6"/>
			</g>
		</mask>
		
			<linearGradient id="SVGID_00000155843233448904961790000005987163234021110695_" gradientUnits="userSpaceOnUse" x1="7177.4146" y1="1916.1273" x2="7188.8076" y2="1916.1273" gradientTransform="matrix(-24.8743 0 0 24.8743 180033.1562 -46459.2461)">
			<stop  offset="0" style="stop-color:#283679"/>
			<stop  offset="1" style="stop-color:#283679"/>
		</linearGradient>
		
			<rect x="1216.5" y="1061.3" style="clip-path:url(#SVGID_00000020391809728769199130000017552233460396328322_);mask:url(#SVGID_00000147942409426490020990000010453180105312220553_);fill:url(#SVGID_00000155843233448904961790000005987163234021110695_);" width="283.4" height="283.6"/>
	</g>
	<g class="st1">
		<defs>
			<path id="SVGID_00000068660902558146978980000006432114417362841003_" d="M1500.1,1344.9v283.4h283.4v-228.4
				c0-17.1-6.1-31.1-17.8-41.4c-8.8-7.6-19.4-13.6-39.2-13.6H1500.1z"/>
		</defs>
		<clipPath id="SVGID_00000155859209447011407710000001634643909248543626_">
			<use xlink:href="#SVGID_00000068660902558146978980000006432114417362841003_"  style="overflow:visible;"/>
		</clipPath>
		<defs>
			
				<filter id="Adobe_OpacityMaskFilter_00000007389018907762615440000007465585969198199936_" filterUnits="userSpaceOnUse" x="1500.1" y="1344.9" width="283.4" height="283.4">
				<feColorMatrix  type="matrix" values="1 0 0 0 0  0 1 0 0 0  0 0 1 0 0  0 0 0 1 0"/>
			</filter>
		</defs>
		
			<mask maskUnits="userSpaceOnUse" x="1500.1" y="1344.9" width="283.4" height="283.4" id="SVGID_00000177485025238717996960000008353328946703217808_">
			<g style="filter:url(#Adobe_OpacityMaskFilter_00000007389018907762615440000007465585969198199936_);">
				
					<linearGradient id="SVGID_00000142887811267410309550000010169139010229898642_" gradientUnits="userSpaceOnUse" x1="6927.0439" y1="2155.4478" x2="6938.4375" y2="2155.4478" gradientTransform="matrix(0 -24.8743 -24.8743 0 55257.0352 173933.5312)">
					<stop  offset="0" style="stop-color:#000000"/>
					<stop  offset="0.8883" style="stop-color:#FFFFFF"/>
					<stop  offset="1" style="stop-color:#FFFFFF"/>
				</linearGradient>
				
					<rect x="1500.1" y="1344.9" style="clip-path:url(#SVGID_00000155859209447011407710000001634643909248543626_);fill:url(#SVGID_00000142887811267410309550000010169139010229898642_);" width="283.4" height="283.4"/>
			</g>
		</mask>
		
			<linearGradient id="SVGID_00000112631897601393962800000008964631666451728291_" gradientUnits="userSpaceOnUse" x1="6927.0435" y1="2155.4478" x2="6938.4375" y2="2155.4478" gradientTransform="matrix(0 -24.8743 -24.8743 0 55257.0391 173933.5469)">
			<stop  offset="0" style="stop-color:#283679"/>
			<stop  offset="0.8883" style="stop-color:#283679"/>
			<stop  offset="1" style="stop-color:#283679"/>
		</linearGradient>
		
			<rect x="1500.1" y="1344.9" style="clip-path:url(#SVGID_00000155859209447011407710000001634643909248543626_);mask:url(#SVGID_00000177485025238717996960000008353328946703217808_);fill:url(#SVGID_00000112631897601393962800000008964631666451728291_);" width="283.4" height="283.4"/>
	</g>
	<g class="st1">
		<defs>
			<path id="SVGID_00000076605787209163108760000013790495119581508497_" d="M2350.3,1061.3v283.4h283.6v-228.2
				c0-17-6.2-31.1-17.8-41.4c-8.8-7.6-19.5-13.8-39.2-13.8H2350.3z"/>
		</defs>
		<clipPath id="SVGID_00000140719640214882861240000006755205886636995509_">
			<use xlink:href="#SVGID_00000076605787209163108760000013790495119581508497_"  style="overflow:visible;"/>
		</clipPath>
		<defs>
			
				<filter id="Adobe_OpacityMaskFilter_00000000930546966490333710000003612972189188507280_" filterUnits="userSpaceOnUse" x="2350.3" y="1061.3" width="283.6" height="283.4">
				<feColorMatrix  type="matrix" values="1 0 0 0 0  0 1 0 0 0  0 0 1 0 0  0 0 0 1 0"/>
			</filter>
		</defs>
		
			<mask maskUnits="userSpaceOnUse" x="2350.3" y="1061.3" width="283.6" height="283.4" id="SVGID_00000153665798977436272640000005096297691558962100_">
			<g style="filter:url(#Adobe_OpacityMaskFilter_00000000930546966490333710000003612972189188507280_);">
				
					<linearGradient id="SVGID_00000116934725840320980570000010304726001089053830_" gradientUnits="userSpaceOnUse" x1="6937.4429" y1="2124.2644" x2="6948.8359" y2="2124.2644" gradientTransform="matrix(0 -24.8743 -24.8743 0 55331.6953 173908.75)">
					<stop  offset="0" style="stop-color:#000000"/>
					<stop  offset="0.8883" style="stop-color:#FFFFFF"/>
					<stop  offset="1" style="stop-color:#FFFFFF"/>
				</linearGradient>
				
					<rect x="2350.3" y="1061.3" style="clip-path:url(#SVGID_00000140719640214882861240000006755205886636995509_);fill:url(#SVGID_00000116934725840320980570000010304726001089053830_);" width="283.6" height="283.4"/>
			</g>
		</mask>
		
			<linearGradient id="SVGID_00000042706021227495182610000006828527970559059372_" gradientUnits="userSpaceOnUse" x1="6937.4429" y1="2124.2644" x2="6948.8359" y2="2124.2644" gradientTransform="matrix(0 -24.8743 -24.8743 0 55331.6953 173908.75)">
			<stop  offset="0" style="stop-color:#283679"/>
			<stop  offset="0.8883" style="stop-color:#283679"/>
			<stop  offset="1" style="stop-color:#283679"/>
		</linearGradient>
		
			<rect x="2350.3" y="1061.3" style="clip-path:url(#SVGID_00000140719640214882861240000006755205886636995509_);mask:url(#SVGID_00000153665798977436272640000005096297691558962100_);fill:url(#SVGID_00000042706021227495182610000006828527970559059372_);" width="283.6" height="283.4"/>
	</g>
	<g class="st1">
		<defs>
			<path id="SVGID_00000034787427846141043730000013426400451444002726_" d="M1783.2,1061.3v228.4c0,17,6.2,31.1,17.8,41.4
				c8.8,7.6,19.5,13.8,39.2,13.8h226.5v-283.6H1783.2z"/>
		</defs>
		<clipPath id="SVGID_00000035522742497652387650000016988095727818794663_">
			<use xlink:href="#SVGID_00000034787427846141043730000013426400451444002726_"  style="overflow:visible;"/>
		</clipPath>
		<defs>
			
				<filter id="Adobe_OpacityMaskFilter_00000073682421997553246190000011800835647214761882_" filterUnits="userSpaceOnUse" x="1783.2" y="1061.3" width="283.6" height="283.6">
				<feColorMatrix  type="matrix" values="1 0 0 0 0  0 1 0 0 0  0 0 1 0 0  0 0 0 1 0"/>
			</filter>
		</defs>
		
			<mask maskUnits="userSpaceOnUse" x="1783.2" y="1061.3" width="283.6" height="283.6" id="SVGID_00000034770432969608947940000012755378403656347316_">
			<g style="filter:url(#Adobe_OpacityMaskFilter_00000073682421997553246190000011800835647214761882_);">
				
					<linearGradient id="SVGID_00000086688184915854111770000016306916467207395215_" gradientUnits="userSpaceOnUse" x1="6927.6973" y1="1697.0596" x2="6939.0908" y2="1697.0596" gradientTransform="matrix(0 24.8879 24.8879 0 -40311.2734 -171354.5469)">
					<stop  offset="0" style="stop-color:#000000"/>
					<stop  offset="1" style="stop-color:#FFFFFF"/>
				</linearGradient>
				
					<rect x="1783.2" y="1061.3" style="clip-path:url(#SVGID_00000035522742497652387650000016988095727818794663_);fill:url(#SVGID_00000086688184915854111770000016306916467207395215_);" width="283.6" height="283.6"/>
			</g>
		</mask>
		
			<linearGradient id="SVGID_00000132075483856334176020000004241669837246971577_" gradientUnits="userSpaceOnUse" x1="6927.6978" y1="1697.0601" x2="6939.0908" y2="1697.0601" gradientTransform="matrix(0 24.8879 24.8879 0 -40311.2734 -171354.5469)">
			<stop  offset="0" style="stop-color:#283679"/>
			<stop  offset="1" style="stop-color:#283679"/>
		</linearGradient>
		
			<rect x="1783.2" y="1061.3" style="clip-path:url(#SVGID_00000035522742497652387650000016988095727818794663_);mask:url(#SVGID_00000034770432969608947940000012755378403656347316_);fill:url(#SVGID_00000132075483856334176020000004241669837246971577_);" width="283.6" height="283.6"/>
	</g>
	<path class="st20" d="M1566,2162.9h-133.6v59.2H1566V2162.9z M795.7,1830.6H662.8c-6.7,0-12.5,2.4-17.1,7.3l-44.8,44.8
		c-4.9,4.6-7.3,10.4-7.3,17.1v105.5c0,3.7,0.6,7,2.1,10.4h-42.1c-7,0-12.2,2.1-17.4,7l-44.8,44.8c-4.6,4.9-7,10.7-7,17.4v48.8h59.2
		v-59.2h252.2v-58.8h-143v-125.9h143V1830.6z M543.6,2015.7v-185.1h-59.2v184.8l7.3,0.3H543.6z M425.3,1830.6h-59.1v303.1h59.1
		V1830.6z M914,2074.5h-59.1v59.2H914V2074.5z M1262.6,2061.7v-231.1h59.2v121.1v122.6h185.1l0.3-184.2h16.5h42.4v243.3h-244.2v0.3
		v59.2h-220.2c-6.7,0-12.5-2.4-17.4-7.3l-44.5-44.8c-4.9-4.6-7.3-10.4-7.3-17.4v-152.5h59.2v162.8h171.1V2061.7z M1677.3,2126.3
		l-44.8-44.8c-4.9-4.6-7.3-10.4-7.3-17.1v-233.9h59.2v243.9h184.5l0.3-184.8h58.8v243.9h-233.6
		C1687.6,2133.7,1681.8,2131.2,1677.3,2126.3 M2417.9,2064.4c0,6.7-2.4,12.5-7,17.1l-44.8,44.8c-4.9,4.9-10.7,7.3-17.4,7.3h-86.6
		v59.2H2203v-59.2h-146.7c-6.7,0-12.5-2.4-17.4-7.3l-44.5-44.8c-4.9-4.6-7.3-10.4-7.3-17.1v-105.5c0-6.7,2.4-12.5,7.3-17.4
		l44.5-44.8c4.9-4.6,10.7-7,17.4-7h136.6c6.7,0,12.5,2.4,17.4,7l44.8,44.8c4.6,4.9,7,10.7,7,17.4v115.6h96.7v-115.6
		c0-6.7,2.4-12.5,7.3-17.4l44.8-44.8c4.6-4.6,10.4-7,17.1-7h136.6c6.7,0,12.5,2.4,17.4,7l44.8,44.8c4.9,4.9,7,10.7,7,17.4v105.5
		c0,6.7-2.1,12.5-7,17.1l-44.8,44.8c-4.9,4.9-10.7,7.3-17.4,7.3h-146.7v-59.2h157v-125.6h-157V2064.4z M2203.6,1948.9h-156.7v125.6
		h156.7V1948.9z M1927.9,2162.9h-59.1v59.2h59.1V2162.9z"/>
</g>
<g>
	<g>
		<g>
			<path class="st39" d="M928.1,1121.6c0-48.9-18.3-78.3-40.6-100l-208-206.4c-20.8-20.8-53.2-35.7-90.3-35.7h-230v282.3h284.5
				v282.5H359.2v282.3h853.3v-282.3H928.1V1121.6z"/>
			<path class="st39" d="M1212.7,779.5H928.1v228.1c0,31.3,13.4,68.7,36.7,90.6l207.7,206.2c26.4,26.3,54,39.8,100.1,39.8h224.4
				v282.3h284.4v-228.1c0-40.3-18-72.1-39.5-93.4l-245-243.3h-284.2V779.5z"/>
			<path class="st39" d="M2596.8,1023.9l-206.8-205c-28-28.1-62.7-39.4-94.2-39.4h-230v282.3h284.4v282.5h-284.4v-282.1h-284.4
				V779.5h-284.4l-0.2,282.3l284.4,0.3l-0.1,226.1c0.2,32.1,11,66.7,34.4,89.8l211.3,209.8c29.7,29.5,63.4,37.5,89.2,38.7h518.7
				V1116C2634.8,1086.1,2625.6,1052.6,2596.8,1023.9"/>
		</g>
		<g>
			<defs>
				<path id="SVGID_00000130638018055385890990000012832633412529420723_" d="M643.8,1061.9v282.5h284.4v-225.7
					c0-19.6-6.2-30.3-13.8-39.1c-10.2-11.6-24.4-17.7-41.5-17.7H643.8z"/>
			</defs>
			<clipPath id="SVGID_00000137129236903404918520000012829702218724615068_">
				<use xlink:href="#SVGID_00000130638018055385890990000012832633412529420723_"  style="overflow:visible;"/>
			</clipPath>
			
				<linearGradient id="SVGID_00000139262893843938896430000015757028703544008359_" gradientUnits="userSpaceOnUse" x1="5402.7075" y1="2702.7842" x2="5414.312" y2="2702.7842" gradientTransform="matrix(0 -24.3407 -24.3407 0 66573.5156 132849.8125)">
				<stop  offset="0" style="stop-color:#FFFFFF"/>
				<stop  offset="0.5196" style="stop-color:#FFFFFF"/>
				<stop  offset="0.5634" style="stop-color:#ECECED"/>
				<stop  offset="0.7105" style="stop-color:#C1C2C9"/>
				<stop  offset="0.8236" style="stop-color:#A8ABB5"/>
				<stop  offset="0.8883" style="stop-color:#9FA3AE"/>
				<stop  offset="1" style="stop-color:#9FA3AE"/>
			</linearGradient>
			
				<rect x="643.8" y="1061.9" style="clip-path:url(#SVGID_00000137129236903404918520000012829702218724615068_);fill:url(#SVGID_00000139262893843938896430000015757028703544008359_);" width="284.4" height="282.5"/>
		</g>
		<g>
			<defs>
				<path id="SVGID_00000062883338622006549010000009196955607290860715_" d="M1212.5,1061.9v225.7c0,19.6,6.2,30.3,13.9,38.9
					c10.2,11.7,24.4,17.9,41.5,17.9h229v-282.5H1212.5z"/>
			</defs>
			<clipPath id="SVGID_00000066477622503840533550000017218012474524875926_">
				<use xlink:href="#SVGID_00000062883338622006549010000009196955607290860715_"  style="overflow:visible;"/>
			</clipPath>
			
				<linearGradient id="SVGID_00000081633320867652560690000011450249711259527607_" gradientUnits="userSpaceOnUse" x1="5592.75" y1="2423.1399" x2="5604.355" y2="2423.1399" gradientTransform="matrix(-24.5057 0 0 24.5057 138551.1094 -58177.6172)">
				<stop  offset="0" style="stop-color:#FFFFFF"/>
				<stop  offset="0.5196" style="stop-color:#FFFFFF"/>
				<stop  offset="0.5634" style="stop-color:#ECECED"/>
				<stop  offset="0.7105" style="stop-color:#C1C2C9"/>
				<stop  offset="0.8236" style="stop-color:#A8ABB5"/>
				<stop  offset="0.8883" style="stop-color:#9FA3AE"/>
				<stop  offset="1" style="stop-color:#9FA3AE"/>
			</linearGradient>
			
				<rect x="1212.5" y="1061.9" style="clip-path:url(#SVGID_00000066477622503840533550000017218012474524875926_);fill:url(#SVGID_00000081633320867652560690000011450249711259527607_);" width="284.4" height="282.5"/>
		</g>
		<g>
			<defs>
				<path id="SVGID_00000165213216672913003130000014261135540892657085_" d="M1497.1,1344.3v282.3h284.4v-227.5
					c0-17-6.1-31-17.9-41.2c-8.9-7.6-19.4-13.6-39.3-13.6H1497.1z"/>
			</defs>
			<clipPath id="SVGID_00000081625858848993773510000012744687006524735634_">
				<use xlink:href="#SVGID_00000165213216672913003130000014261135540892657085_"  style="overflow:visible;"/>
			</clipPath>
			
				<linearGradient id="SVGID_00000041976648630986555990000005231078297532676493_" gradientUnits="userSpaceOnUse" x1="5392.1182" y1="2670.8655" x2="5403.7231" y2="2670.8655" gradientTransform="matrix(0 -24.3273 -24.3273 0 66614.3359 132802.5625)">
				<stop  offset="0" style="stop-color:#FFFFFF"/>
				<stop  offset="0.5196" style="stop-color:#FFFFFF"/>
				<stop  offset="0.5634" style="stop-color:#ECECED"/>
				<stop  offset="0.7105" style="stop-color:#C1C2C9"/>
				<stop  offset="0.8236" style="stop-color:#A8ABB5"/>
				<stop  offset="0.8883" style="stop-color:#9FA3AE"/>
				<stop  offset="1" style="stop-color:#9FA3AE"/>
			</linearGradient>
			
				<rect x="1497.1" y="1344.3" style="clip-path:url(#SVGID_00000081625858848993773510000012744687006524735634_);fill:url(#SVGID_00000041976648630986555990000005231078297532676493_);" width="284.4" height="282.3"/>
		</g>
		<g>
			<defs>
				<path id="SVGID_00000031193107550345789010000000345897872854122647_" d="M2350.2,1061.9v282.3h284.6v-227.4
					c0-17-6.2-31-17.9-41.2c-8.9-7.6-19.6-13.7-39.3-13.7H2350.2z"/>
			</defs>
			<clipPath id="SVGID_00000044885265015267888350000009781662967955382689_">
				<use xlink:href="#SVGID_00000031193107550345789010000000345897872854122647_"  style="overflow:visible;"/>
			</clipPath>
			
				<linearGradient id="SVGID_00000150100287348788326520000003088151819392385975_" gradientUnits="userSpaceOnUse" x1="5402.7285" y1="2638.8149" x2="5414.3335" y2="2638.8149" gradientTransform="matrix(0 -24.3274 -24.3274 0 66687.8984 132778.3125)">
				<stop  offset="0" style="stop-color:#FFFFFF"/>
				<stop  offset="0.5196" style="stop-color:#FFFFFF"/>
				<stop  offset="0.5634" style="stop-color:#ECECED"/>
				<stop  offset="0.7105" style="stop-color:#C1C2C9"/>
				<stop  offset="0.8236" style="stop-color:#A8ABB5"/>
				<stop  offset="0.8883" style="stop-color:#9FA3AE"/>
				<stop  offset="1" style="stop-color:#9FA3AE"/>
			</linearGradient>
			
				<rect x="2350.2" y="1061.9" style="clip-path:url(#SVGID_00000044885265015267888350000009781662967955382689_);fill:url(#SVGID_00000150100287348788326520000003088151819392385975_);" width="284.6" height="282.3"/>
		</g>
		<g>
			<defs>
				<path id="SVGID_00000005250412595346476140000005429414398294740128_" d="M1781.2,1061.9v227.5c0,17,6.2,31,17.9,41.2
					c8.9,7.6,19.6,13.7,39.3,13.7h227.3v-282.5H1781.2z"/>
			</defs>
			<clipPath id="SVGID_00000043442100934962703110000013909835635722935730_">
				<use xlink:href="#SVGID_00000005250412595346476140000005429414398294740128_"  style="overflow:visible;"/>
			</clipPath>
			
				<linearGradient id="SVGID_00000062894405730882347360000008796172078990473147_" gradientUnits="userSpaceOnUse" x1="5335.7485" y1="2252.708" x2="5347.353" y2="2252.708" gradientTransform="matrix(0 24.3407 24.3407 0 -52908.9766 -128813.7812)">
				<stop  offset="0" style="stop-color:#FFFFFF"/>
				<stop  offset="0.5196" style="stop-color:#FFFFFF"/>
				<stop  offset="0.5634" style="stop-color:#ECECED"/>
				<stop  offset="0.7105" style="stop-color:#C1C2C9"/>
				<stop  offset="0.8236" style="stop-color:#A8ABB5"/>
				<stop  offset="0.8883" style="stop-color:#9FA3AE"/>
				<stop  offset="1" style="stop-color:#9FA3AE"/>
			</linearGradient>
			
				<rect x="1781.2" y="1061.9" style="clip-path:url(#SVGID_00000043442100934962703110000013909835635722935730_);fill:url(#SVGID_00000062894405730882347360000008796172078990473147_);" width="284.5" height="282.5"/>
		</g>
	</g>
</g>
<path class="st39" d="M1566,2162.9h-133.6v59.2H1566V2162.9z M795.7,1830.6H662.8c-6.7,0-12.5,2.4-17.1,7.3l-44.8,44.8
	c-4.9,4.6-7.3,10.4-7.3,17.1v105.5c0,3.7,0.6,7,2.1,10.4h-42.1c-7,0-12.2,2.1-17.4,7l-44.8,44.8c-4.6,4.9-7,10.7-7,17.4v48.8h59.2
	v-59.2h252.2v-58.8h-143v-125.9h143V1830.6z M543.6,2015.7v-185.1h-59.2v184.8l7.3,0.3H543.6z M425.3,1830.6h-59.1v303.1h59.1
	V1830.6z M914,2074.5h-59.1v59.2H914V2074.5z M1262.6,2061.7v-231.1h59.2v121.1v122.6h185.1l0.3-184.2h16.5h42.4v243.3h-244.2v0.3
	v59.2h-220.2c-6.7,0-12.5-2.4-17.4-7.3l-44.5-44.8c-4.9-4.6-7.3-10.4-7.3-17.4v-152.5h59.2v162.8h171.1V2061.7z M1677.3,2126.3
	l-44.8-44.8c-4.9-4.6-7.3-10.4-7.3-17.1v-233.9h59.2v243.9h184.5l0.3-184.8h58.8v243.9h-233.6
	C1687.6,2133.7,1681.8,2131.2,1677.3,2126.3 M2417.9,2064.4c0,6.7-2.4,12.5-7,17.1l-44.8,44.8c-4.9,4.9-10.7,7.3-17.4,7.3h-86.6
	v59.2H2203v-59.2h-146.7c-6.7,0-12.5-2.4-17.4-7.3l-44.5-44.8c-4.9-4.6-7.3-10.4-7.3-17.1v-105.5c0-6.7,2.4-12.5,7.3-17.4l44.5-44.8
	c4.9-4.6,10.7-7,17.4-7h136.6c6.7,0,12.5,2.4,17.4,7l44.8,44.8c4.6,4.9,7,10.7,7,17.4v115.6h96.7v-115.6c0-6.7,2.4-12.5,7.3-17.4
	l44.8-44.8c4.6-4.6,10.4-7,17.1-7h136.6c6.7,0,12.5,2.4,17.4,7l44.8,44.8c4.9,4.9,7,10.7,7,17.4v105.5c0,6.7-2.1,12.5-7,17.1
	l-44.8,44.8c-4.9,4.9-10.7,7.3-17.4,7.3h-146.7v-59.2h157v-125.6h-157V2064.4z M2203.6,1948.9h-156.7v125.6h156.7V1948.9z
	 M1927.9,2162.9h-59.1v59.2h59.1V2162.9z"/>
</svg>
