<svg width="2276" height="1443" viewBox="0 0 2276 1443" fill="none" xmlns="http://www.w3.org/2000/svg">
<path fill-rule="evenodd" clip-rule="evenodd" d="M568.9 342.1C568.9 293.2 550.6 263.8 528.3 242.1L320.3 35.7C299.5 14.9 267.1 0 230 0H0V282.3H284.5V564.8H0V847.1H853.3V564.8H568.9V342.1Z" fill="white"/>
<path fill-rule="evenodd" clip-rule="evenodd" d="M853.5 0H568.9V228.1C568.9 259.4 582.3 296.8 605.6 318.7L813.3 524.9C839.7 551.2 867.3 564.7 913.4 564.7H1137.8V847H1422.2V618.9C1422.2 578.6 1404.2 546.8 1382.7 525.5L1137.7 282.2H853.5V0Z" fill="white"/>
<path fill-rule="evenodd" clip-rule="evenodd" d="M2237.6 244.4L2030.8 39.4C2002.8 11.3 1968.1 0 1936.6 0H1706.6V282.3H1991V564.8H1706.6V282.7H1422.2V0H1137.8L1137.6 282.3L1422 282.6L1421.9 508.7C1422.1 540.8 1432.9 575.4 1456.3 598.5L1667.6 808.3C1697.3 837.8 1731 845.8 1756.8 847H2275.5V336.5C2275.6 306.6 2266.4 273.1 2237.6 244.4Z" fill="white"/>
<mask id="mask0_22870_1891" style="mask-type:luminance" maskUnits="userSpaceOnUse" x="284" y="282" width="285" height="283">
<path d="M284.6 282.4V564.9H569V339.2C569 319.6 562.8 308.9 555.2 300.1C545 288.5 530.8 282.4 513.7 282.4H284.6Z" fill="white"/>
</mask>
<g mask="url(#mask0_22870_1891)">
<path d="M569 282.4H284.6V564.9H569V282.4Z" fill="url(#paint0_linear_22870_1891)"/>
</g>
<mask id="mask1_22870_1891" style="mask-type:luminance" maskUnits="userSpaceOnUse" x="853" y="282" width="285" height="283">
<path d="M853.3 282.4V508.1C853.3 527.7 859.5 538.4 867.2 547C877.4 558.7 891.6 564.9 908.7 564.9H1137.7V282.4H853.3V282.4Z" fill="white"/>
</mask>
<g mask="url(#mask1_22870_1891)">
<path d="M1137.7 282.4H853.3V564.9H1137.7V282.4Z" fill="url(#paint1_linear_22870_1891)"/>
</g>
<mask id="mask2_22870_1891" style="mask-type:luminance" maskUnits="userSpaceOnUse" x="1137" y="564" width="286" height="284">
<path d="M1137.9 564.801V847.101H1422.3V619.601C1422.3 602.601 1416.2 588.601 1404.4 578.401C1395.5 570.801 1385 564.801 1365.1 564.801H1137.9Z" fill="white"/>
</mask>
<g mask="url(#mask2_22870_1891)">
<path d="M1422.3 564.801H1137.9V847.101H1422.3V564.801Z" fill="url(#paint2_linear_22870_1891)"/>
</g>
<mask id="mask3_22870_1891" style="mask-type:luminance" maskUnits="userSpaceOnUse" x="1991" y="282" width="285" height="283">
<path d="M1991 282.4V564.7H2275.6V337.3C2275.6 320.3 2269.4 306.3 2257.7 296.1C2248.8 288.5 2238.1 282.4 2218.4 282.4H1991V282.4Z" fill="white"/>
</mask>
<g mask="url(#mask3_22870_1891)">
<path d="M2275.6 282.4H1991V564.7H2275.6V282.4Z" fill="url(#paint3_linear_22870_1891)"/>
</g>
<mask id="mask4_22870_1891" style="mask-type:luminance" maskUnits="userSpaceOnUse" x="1422" y="282" width="285" height="283">
<path d="M1422 282.401V509.901C1422 526.901 1428.2 540.901 1439.9 551.101C1448.8 558.701 1459.5 564.801 1479.2 564.801H1706.5V282.301H1422V282.401Z" fill="white"/>
</mask>
<g mask="url(#mask4_22870_1891)">
<path d="M1706.5 282.4H1422V564.9H1706.5V282.4Z" fill="url(#paint4_linear_22870_1891)"/>
</g>
<path fill-rule="evenodd" clip-rule="evenodd" d="M1206.8 1383.4H1073.2V1442.6H1206.8V1383.4ZM436.5 1051.1H303.6C296.9 1051.1 291.1 1053.5 286.5 1058.4L241.7 1103.2C236.8 1107.8 234.4 1113.6 234.4 1120.3V1225.8C234.4 1229.5 235 1232.8 236.5 1236.2H194.4C187.4 1236.2 182.2 1238.3 177 1243.2L132.2 1288C127.6 1292.9 125.2 1298.7 125.2 1305.4V1354.2H184.4V1295H436.6V1236.2H293.6V1110.3H436.6V1051.1H436.5ZM184.4 1236.2V1051.1H125.2V1235.9L132.5 1236.2H184.4ZM66.1 1051.1H7V1354.2H66.1V1051.1ZM554.8 1295H495.7V1354.2H554.8V1295ZM903.4 1282.2V1051.1H962.6V1172.2V1294.8H1147.7L1148 1110.6H1164.5H1206.9V1353.9H962.7V1354.2V1413.4H742.5C735.8 1413.4 730 1411 725.1 1406.1L680.6 1361.3C675.7 1356.7 673.3 1350.9 673.3 1343.9V1191.4H732.5V1354.2H903.6V1282.2H903.4ZM1318.1 1346.8L1273.3 1302C1268.4 1297.4 1266 1291.6 1266 1284.9V1051H1325.2V1294.9H1509.7L1510 1110.1H1568.8V1354H1335.2C1328.4 1354.2 1322.6 1351.7 1318.1 1346.8ZM2058.7 1284.9C2058.7 1291.6 2056.3 1297.4 2051.7 1302L2006.9 1346.8C2002 1351.7 1996.2 1354.1 1989.5 1354.1H1902.9V1413.3H1843.8V1354.1H1697.1C1690.4 1354.1 1684.6 1351.7 1679.7 1346.8L1635.2 1302C1630.3 1297.4 1627.9 1291.6 1627.9 1284.9V1179.4C1627.9 1172.7 1630.3 1166.9 1635.2 1162L1679.7 1117.2C1684.6 1112.6 1690.4 1110.2 1697.1 1110.2H1833.7C1840.4 1110.2 1846.2 1112.6 1851.1 1117.2L1895.9 1162C1900.5 1166.9 1902.9 1172.7 1902.9 1179.4V1295H1999.6V1179.4C1999.6 1172.7 2002 1166.9 2006.9 1162L2051.7 1117.2C2056.3 1112.6 2062.1 1110.2 2068.8 1110.2H2205.4C2212.1 1110.2 2217.9 1112.6 2222.8 1117.2L2267.6 1162C2272.5 1166.9 2274.6 1172.7 2274.6 1179.4V1284.9C2274.6 1291.6 2272.5 1297.4 2267.6 1302L2222.8 1346.8C2217.9 1351.7 2212.1 1354.1 2205.4 1354.1H2058.7V1294.9H2215.7V1169.3H2058.7V1284.9ZM1844.4 1169.4H1687.7V1295H1844.4V1169.4ZM1568.7 1383.4H1509.6V1442.6H1568.7V1383.4Z" fill="white"/>
<defs>
<linearGradient id="paint0_linear_22870_1891" x1="426.656" y1="564.63" x2="426.656" y2="282.169" gradientUnits="userSpaceOnUse">
<stop stop-color="white"/>
<stop offset="0.5196" stop-color="white"/>
<stop offset="0.5634" stop-color="#ECECED"/>
<stop offset="0.7105" stop-color="#C1C2C9"/>
<stop offset="0.8236" stop-color="#A8ABB5"/>
<stop offset="0.8883" stop-color="#9FA3AE"/>
<stop offset="1" stop-color="#9FA3AE"/>
</linearGradient>
<linearGradient id="paint1_linear_22870_1891" x1="1137.66" y1="423.623" x2="853.267" y2="423.623" gradientUnits="userSpaceOnUse">
<stop stop-color="white"/>
<stop offset="0.5196" stop-color="white"/>
<stop offset="0.5634" stop-color="#ECECED"/>
<stop offset="0.7105" stop-color="#C1C2C9"/>
<stop offset="0.8236" stop-color="#A8ABB5"/>
<stop offset="0.8883" stop-color="#9FA3AE"/>
<stop offset="1" stop-color="#9FA3AE"/>
</linearGradient>
<linearGradient id="paint2_linear_22870_1891" x1="1280.19" y1="847.386" x2="1280.19" y2="565.07" gradientUnits="userSpaceOnUse">
<stop stop-color="white"/>
<stop offset="0.5196" stop-color="white"/>
<stop offset="0.5634" stop-color="#ECECED"/>
<stop offset="0.7105" stop-color="#C1C2C9"/>
<stop offset="0.8236" stop-color="#A8ABB5"/>
<stop offset="0.8883" stop-color="#9FA3AE"/>
<stop offset="1" stop-color="#9FA3AE"/>
</linearGradient>
<linearGradient id="paint3_linear_22870_1891" x1="2133.19" y1="564.476" x2="2133.19" y2="282.156" gradientUnits="userSpaceOnUse">
<stop stop-color="white"/>
<stop offset="0.5196" stop-color="white"/>
<stop offset="0.5634" stop-color="#ECECED"/>
<stop offset="0.7105" stop-color="#C1C2C9"/>
<stop offset="0.8236" stop-color="#A8ABB5"/>
<stop offset="0.8883" stop-color="#9FA3AE"/>
<stop offset="1" stop-color="#9FA3AE"/>
</linearGradient>
<linearGradient id="paint4_linear_22870_1891" x1="1564.31" y1="282.573" x2="1564.31" y2="565.034" gradientUnits="userSpaceOnUse">
<stop stop-color="white"/>
<stop offset="0.5196" stop-color="white"/>
<stop offset="0.5634" stop-color="#ECECED"/>
<stop offset="0.7105" stop-color="#C1C2C9"/>
<stop offset="0.8236" stop-color="#A8ABB5"/>
<stop offset="0.8883" stop-color="#9FA3AE"/>
<stop offset="1" stop-color="#9FA3AE"/>
</linearGradient>
</defs>
</svg>
